<?xml version="1.0" encoding="utf-8"?>
<!-- Generator: Adobe Illustrator 26.3.1, SVG Export Plug-In . SVG Version: 6.00 Build 0)  -->
<svg version="1.1" id="Camada_1" xmlns="http://www.w3.org/2000/svg" xmlns:xlink="http://www.w3.org/1999/xlink" x="0px" y="0px"
	 viewBox="0 0 3000 3500" style="enable-background:new 0 0 3000 3500;" xml:space="preserve">
<style type="text/css">
	.st0{fill:#313131;}
</style>
<g>
	<path class="st0" d="M325.6,3131c2.8-3.73,1.34-8.02,1.34-12.01c0.09-188.29,0.17-376.57-0.19-564.85
		c-0.02-10.51,2.52-12.89,12.94-12.88c798.6,0.27,1597.21,0.27,2395.81,0c10.87,0,13.44,2.75,13.42,13.49
		c-0.35,188.98-0.25,377.95-0.24,566.93c0,3.11,0.11,6.22,0.17,9.33C1941.1,3131,1133.35,3131,325.6,3131z M1734.67,2964.57
		c0,12.86,0.47,23.47-0.16,34.01c-0.47,7.84,1.54,10.61,10.03,10.45c29.74-0.56,59.49-0.48,89.23-0.04
		c7.82,0.12,10.4-1.55,10.38-10.02c-0.3-134.59-0.27-269.17-0.05-403.76c0.01-7.46-1.43-10.13-9.56-10.01
		c-32.85,0.5-65.72,0.49-98.57,0.01c-8.31-0.12-10.42,2.29-10.34,10.43c0.4,41.17,0.22,82.34,0.13,123.51
		c-0.01,3.47,1,7.28-1.43,10.88c-2.33-2.02-4.17-3.54-5.94-5.15c-55.06-50.03-165.05-39.91-199.12,51.91
		c-6.56,17.67-9.89,35.96-11.18,54.63c-3.19,46.14,3.95,89.73,27.66,130.64c38.76,66.86,140.36,69.72,183.6,18.96
		C1723.72,2975.91,1728.52,2971.16,1734.67,2964.57z M1189.2,3008.81c-15.63-27.47-15.05-55.51-14.84-83.57
		c0.27-35.98,0.15-71.97,0-107.95c-0.03-8.28-0.2-16.66-1.45-24.82c-8.09-52.77-32.47-81.55-82.6-90.43
		c-53.79-9.53-108.06-10.52-161.84,1.16c-43.13,9.37-70.73,35.61-81.47,78.8c-0.79,3.16-4.53,7.76,3.54,8.53
		c32.69,3.12,65.34,6.64,97.96,10.39c6.52,0.75,10.02-0.79,12.3-7.23c5.19-14.66,16.56-22.47,31.24-25.92
		c12.59-2.96,25.43-3.21,38.18-1.92c19.2,1.94,26.97,10.79,28.89,30.24c0.62,6.31-1.21,8.99-7.17,11.21
		c-24.69,9.17-50.25,14.88-75.88,20.52c-29.94,6.6-60.63,10.19-89.2,22.44c-33.54,14.38-50.32,39.74-50.41,76.02
		c-0.09,36.57,17.22,62.43,49.84,78.17c16.8,8.1,34.97,10.5,53.38,11.22c45.81,1.81,87.95-7.67,122.41-40.36
		c1.22-1.16,2.35-2.56,4.6-1.35c1.2,10.19,3.89,20.13,8.91,29.37c1.68,3.1,3.2,5.62,7.62,5.6
		C1117.78,3008.72,1152.34,3008.81,1189.2,3008.81z M2222.67,2751.31c0-15.38-0.33-27.76,0.13-40.1c0.25-6.67-1.61-8.92-8.64-8.84
		c-30.78,0.39-61.58,0.35-92.36,0.02c-6.59-0.07-8.75,1.48-8.73,8.47c0.24,96.54,0.24,193.09,0,289.63
		c-0.02,6.99,2.12,8.52,8.71,8.46c32.86-0.32,65.73-0.45,98.59,0.06c8.64,0.13,10.83-2.25,10.8-10.87
		c-0.19-51.55,0.21-103.11,0.6-154.66c0.07-9.73,2.21-19.21,5.85-28.27c7.85-19.54,25.22-29.93,46.07-27.67
		c20.57,2.23,30.13,11.94,33.91,35.28c1.1,6.78,1.34,13.76,1.36,20.65c0.11,51.91,0.21,103.81-0.11,155.71
		c-0.05,7.43,1.33,9.98,9.44,9.84c32.86-0.53,65.73-0.52,98.59-0.01c8.36,0.13,10.97-1.59,10.91-10.54
		c-0.45-60.9-0.27-121.8-0.21-182.7c0.01-11.44-0.48-22.81-2.26-34.13c-5.63-35.73-21.29-65.19-56.83-77.94
		c-42.74-15.34-84.3-11.25-122.38,15.35C2244.15,2727.39,2234.47,2738.19,2222.67,2751.31z M564.8,2748.07
		c0-11.83-0.22-24.83,0.1-37.81c0.14-5.5-0.94-7.93-7.25-7.86c-31.48,0.31-62.97,0.3-94.45,0.01c-6.13-0.06-7.4,2.08-7.39,7.74
		c0.15,96.91,0.17,193.81-0.03,290.72c-0.01,6.38,1.64,8.16,8.07,8.1c33.56-0.33,67.12-0.37,100.68,0.03
		c7.1,0.08,8.43-2.28,8.38-8.77c-0.29-34.26-0.3-68.53-0.08-102.79c0.13-21.08-1.38-42.23,1.95-63.22
		c2.33-14.7,7.02-28.19,19.33-37.76c13.51-10.5,28.52-11.74,44.11-6.2c14.44,5.13,20.2,17.02,21.89,31.27
		c0.9,7.54,1.57,15.15,1.59,22.73c0.14,51.57,0.29,103.14-0.14,154.7c-0.07,8.4,2.45,10.15,10.33,10.04
		c33.21-0.43,66.43-0.42,99.64,0c7.38,0.09,9.08-1.98,9.05-9.18c-0.3-62.99-0.09-125.98-0.3-188.96c-0.03-9.65-0.92-19.36-2.2-28.94
		c-5.74-43.04-29.87-73.33-68.24-82.17c-47.76-11-91.3-2.58-127.4,33.15C576.92,2738.39,570.62,2743.11,564.8,2748.07z
		 M1355.62,2751.51c0-15.56-0.36-28.02,0.14-40.45c0.27-6.66-1.55-8.77-8.49-8.69c-30.77,0.38-61.56,0.4-92.33,0
		c-7.39-0.1-9.16,2.24-9.14,9.36c0.22,96.17,0.21,192.34,0.01,288.51c-0.01,6.72,1.68,8.82,8.64,8.74
		c33.2-0.37,66.41-0.54,99.59,0.08c9.11,0.17,10.59-2.8,10.48-11.03c-0.47-32.17-0.59-64.35-0.04-96.51
		c0.48-27.99,1.33-56.08,11.41-82.77c10.02-26.52,30.33-36.86,57.71-29.68c4,1.05,8.11,2.05,11.78,3.86
		c4.6,2.27,6.47,1.08,8.39-3.52c10.06-24.21,20.32-48.35,30.9-72.34c2.09-4.74,1.09-6.52-3.27-8.56
		c-10.05-4.71-20.34-8.63-31.17-10.97c-36.16-7.79-61.67,2.6-81.98,33.37C1364.35,2736.84,1360.81,2743.03,1355.62,2751.51z
		 M1920.33,2855.87c0,47.74,0.15,95.47-0.16,143.2c-0.05,7.21,0.97,10.11,9.3,9.97c33.19-0.56,66.39-0.44,99.59-0.07
		c7.21,0.08,9.27-1.9,9.25-9.2c-0.24-95.82-0.24-191.63,0-287.45c0.02-7.52-1.53-10.11-9.61-9.99c-33.19,0.48-66.4,0.45-99.59,0.01
		c-7.51-0.1-9,2.23-8.95,9.28C1920.48,2759.71,1920.33,2807.79,1920.33,2855.87z M2511.61,2855.78c0,47.71,0.23,95.43-0.21,143.14
		c-0.08,8.39,2.44,10.17,10.35,10.07c33.18-0.43,66.37-0.37,99.55-0.03c6.78,0.07,8.76-1.76,8.75-8.64
		c-0.21-96.47-0.22-192.93,0.01-289.4c0.02-7.14-2.4-8.58-8.93-8.52c-33.53,0.28-67.06,0.36-100.58-0.05
		c-7.39-0.09-9.14,2.06-9.09,9.24C2511.77,2759.66,2511.62,2807.72,2511.61,2855.78z M1979.24,2665.95
		c16.94,0,33.88-0.26,50.81,0.13c6.23,0.14,8.38-1.46,8.25-8.03c-0.41-21.43-0.33-42.88-0.04-64.31c0.08-6.02-1.21-8.54-7.92-8.48
		c-34.22,0.31-68.44,0.28-102.66,0.02c-6-0.05-7.56,1.88-7.48,7.67c0.31,21.78,0.43,43.57-0.06,65.34c-0.15,6.81,2.28,7.9,8.28,7.77
		C1945.36,2665.71,1962.31,2665.95,1979.24,2665.95z M2570.64,2585.41c-16.92,0-33.84,0.23-50.76-0.12
		c-6.06-0.12-8.53,1.29-8.41,7.95c0.39,21.75,0.33,43.52,0.02,65.28c-0.08,5.81,1.57,7.6,7.48,7.56c34.53-0.26,69.06-0.26,103.59,0
		c6.09,0.05,7.52-2.03,7.45-7.74c-0.29-21.41-0.37-42.83,0.04-64.24c0.13-6.75-1.7-9.02-8.65-8.83
		C2604.49,2585.73,2587.56,2585.41,2570.64,2585.41z"/>
	<path class="st0" d="M952.35,662.8c20.08-18.77,39.27-36.08,59.56-52.12c99.88-78.96,212.34-133.87,332.73-173.27
		c102.87-33.67,208.36-54.93,316.35-62.82c100.23-7.33,200.57-8.4,300.58,2.59c138.69,15.24,271.28,51.28,392.66,122.26
		c89.43,52.29,163.69,120.22,212.84,212.91c34.64,65.31,52.77,135.27,52.79,209.01c0.1,370.39-0.6,740.78-0.98,1111.17
		c-0.04,38.07-0.81,76.18,0.36,114.22c2.14,69.19,22.9,133.75,51.57,196.08c13.44,29.22,29.03,57.3,46.4,84.38
		c1.8,2.8,3.44,5.71,6.11,10.19c-4.81,0-8.09,0-11.37,0c-198.99,0-397.97-0.03-596.96,0.14c-6.92,0.01-11.12-1.8-15.02-7.9
		c-39.62-61.97-70.1-127.62-82.58-200.74c-0.52-3.03-1.55-5.98-2.03-7.8c-8.02,13.33-18.23,26.28-28.95,38.82
		c-69.91,81.84-159.56,130.73-262.79,156.42c-84.52,21.04-170.25,23.12-256.61,15.31c-62.15-5.62-122.11-19.09-178.25-46.93
		c-97.84-48.52-163.14-126.86-205.22-226.07c-29.54-69.66-44.79-142.78-52.11-217.81c-6.65-68.16-5.58-136.1,4.04-203.94
		c27.14-191.25,127.49-327.48,304.22-406.98c59.53-26.78,122.37-42.72,184.93-59.9c135.56-37.23,269.34-79.67,397.17-139.04
		c27.57-12.8,54.41-26.99,80.99-41.73c6.32-3.51,8.41-7.58,8.27-14.67c-0.45-22.49-0.64-45.01-0.08-67.5
		c1.41-56.55-22.03-101.01-65.47-135.67c-43.62-34.8-94.62-53.68-148.04-66.67c-96.51-23.46-194.31-26.19-292.77-17.21
		c-90.61,8.26-178.86,26.95-263.62,60.54c-66.11,26.19-127.59,60.01-177.27,112.21c-44.09,46.33-66.9,100.78-66.83,165.65
		c0.47,432.35,0.25,864.7,0.22,1297.06c0,15.51,1.79,13.65-13.97,13.65c-211.1,0.03-422.2-0.08-633.29,0.3
		c-10.92,0.02-12.81-3.12-12.8-13.23c0.25-557.66-0.11-1115.32,0.49-1672.97c0.12-114.28-26.64-220.9-81.06-320.97
		c-1.49-2.73-2.9-5.51-4.46-8.19c-2.09-3.58-1-5.05,2.99-4.89c2.07,0.08,4.15,0.01,6.23,0.01c200.02,0,400.05,0.06,600.07-0.21
		c8-0.01,12.28,2.53,16.45,9.15c39.79,63.09,62.81,131.87,70.86,205.85C949.79,641.38,951,651.26,952.35,662.8z M2012.02,1645.87
		c-0.19,0-0.38,0-0.57,0c0-53.98-0.11-107.95,0.12-161.93c0.03-7.36-0.96-9.42-9.09-7.06c-50.37,14.6-100.41,30.17-149.59,48.41
		c-61.63,22.86-121.8,48.72-175.88,86.84c-39.87,28.1-73.57,61.72-93.36,107.36c-21.76,50.18-21.89,102.2-12.02,154.71
		c14.81,78.73,81.1,136.4,161.09,141.89c53.66,3.68,101.65-12,145.72-41.25c57.73-38.32,97.86-91.8,129.67-152.33
		c2.85-5.41,4-10.74,3.99-16.78C2011.97,1752.44,2012.02,1699.16,2012.02,1645.87z"/>
	<path class="st0" d="M1623.97,2857.04c0.84-14.07,0.97-27.64,5.74-40.48c6.87-18.49,18.66-31.58,39.58-33.1
		c21.42-1.56,38.73,6.97,47.69,26.31c14.38,31.04,13.62,63.31-0.29,94.32c-7.85,17.51-23.51,25.56-42.91,25.55
		c-19-0.01-31.82-9.78-40.54-25.83C1625.19,2889.01,1624.82,2872.67,1623.97,2857.04z"/>
	<path class="st0" d="M1059.5,2881.15c-0.97,46.18-31.45,73.47-75.34,69.28c-15.04-1.44-26.65-10.76-29.33-23.55
		c-3.14-14.98,2.92-27.48,17.46-35.04c15.72-8.17,32.99-11.83,49.9-16.52c9.29-2.57,18.67-5.06,27.6-8.6
		c7.88-3.12,10.8-1.57,9.77,6.98C1059.19,2876.77,1059.5,2879.91,1059.5,2881.15z"/>
</g>
</svg>
